<svg xmlns="http://www.w3.org/2000/svg" xml:space="preserve" width="2000" height="110" data-id="lg_J40tPdH2E4B7FYNm6H" data-version="1" viewBox="0 0 2000 110"><g data-padding="20"><g transform="translate(10 2.052)scale(.96269)"><rect width="408.634" height="82.49" x="414.387" y="-374.105" fill="none" rx="0" ry="0" transform="translate(473.24 374.66)"/><path fill="#007bff" d="M898.884 64.24h-10.22v-1.61l1.46-.43q1.38-.44 1.89-1.43.51-.98.51-2.59V22.05q0-1.46-.36-2.38-.37-.91-1.83-1.42l-1.67-.66v-1.6h13.94l13.72 35.69 12.92-35.69h14.24v1.6l-1.17.37q-1.39.44-1.9 1.35t-.51 2.37q-.07 4.23-.07 8.43v19.97q0 4.23.07 8.39 0 1.54.37 2.34.36.8 1.75 1.31l1.46.51v1.61h-17.74v-1.61l1.61-.51q1.38-.51 1.71-1.35t.33-2.3V42.63l.15-19.56-14.9 41.17h-4.08l-15.7-40.73.29 16.64v18.1q0 1.61.44 2.56t1.83 1.31l1.46.51Zm78.63 0h-20.15v-1.53l2.12-.51q1.46-.37 2.04-1.25.58-.87.66-2.33V45.41l-11.76-24.02q-.73-1.46-1.38-2.19-.66-.73-1.9-1.17l-1.32-.51v-1.53h19.35v1.53l-1.31.44q-1.61.51-1.76 1.64-.14 1.13.66 2.88l8.32 18.4 8.98-18.91q.66-1.31.59-2.55-.08-1.24-1.54-1.61l-1.02-.29v-1.53h9.56v1.53l-1.46.44q-1.46.44-2.08 1.31-.62.88-1.27 2.34l-10.15 21.09v15.92q0 2.99 2.63 3.58l2.19.51Zm30.21 0h-17.89v-1.53l1.46-.51q2.34-.73 2.34-3.65.07-4.17.07-8.51V30.15q0-4.24-.07-8.47 0-2.99-2.26-3.72l-1.54-.44v-1.53h19.2q7.67 0 13.22 2.84 5.54 2.85 8.54 8.22 2.99 5.36 2.99 12.95 0 7.74-3.25 13.14-3.25 5.41-9.12 8.25-5.88 2.85-13.69 2.85m-3.51-2.12h3.73q5.18 0 8.43-2.04 3.25-2.05 4.78-6.9t1.53-13.1-1.53-13.07-4.71-6.86q-3.17-2.05-8.21-2.05h-4.02q-.07 5.04-.07 10.19v23.5q0 5.22.07 10.33m51.03 2.12h-18.25v-1.53l1.46-.44q1.46-.51 1.94-1.35.47-.84.47-2.37V21.68q0-1.53-.47-2.37-.48-.84-1.94-1.35l-1.46-.44v-1.53h18.25v1.53l-1.46.44q-1.39.51-1.9 1.35t-.51 2.37v36.87q0 1.53.51 2.37t1.9 1.35l1.46.44Zm18.91 1.24q-4.02 0-8.14-.99-4.13-.98-6.9-2.59l.44-10.14h2.12l2.26 5.03q1.02 2.12 2.12 3.51 1.09 1.38 2.92 2.11 1.24.52 2.37.7t2.52.18q4.45 0 7.04-2.3t2.59-6.09q0-3.44-1.79-5.41-1.78-1.97-5.73-3.79l-2.99-1.32q-6.13-2.7-9.67-6.27-3.54-3.58-3.54-9.49 0-4.38 2.22-7.49 2.23-3.1 6.17-4.78t9.2-1.68q3.87 0 7.26 1.02 3.4 1.03 5.95 2.78l-.51 9.05h-2.11l-2.71-5.47q-1.16-2.41-2.22-3.47t-2.59-1.35q-.88-.15-1.5-.22t-1.64-.07q-3.58 0-6.17 2.08t-2.59 5.73q0 3.5 1.97 5.69t5.69 3.87l3.29 1.39q7.08 3.06 10.14 6.53 3.07 3.47 3.07 8.87 0 6.42-4.85 10.4-4.86 3.98-13.69 3.98m54.76-1.24h-22.56v-1.53l2.92-.59q3.07-.65 3.07-3.57V28.4q0-5.11-.08-10.22h-5.76q-2.34 0-3.43 1.24-1.1 1.24-2.19 3.5l-2.56 5.4h-2.04l.36-12.33h41.9l.37 12.33h-2.04l-2.56-5.4q-1.09-2.26-2.19-3.5-1.09-1.24-3.43-1.24h-5.84v40.37q0 2.99 3.07 3.57l2.99.59Zm31.46 0h-18.32v-1.53l1.53-.44q1.46-.44 1.86-1.28t.4-2.37q.08-4.24.08-8.47v-20q0-4.24-.08-8.47 0-1.53-.36-2.37-.37-.84-1.83-1.28l-1.6-.51v-1.53h20.44q8.54 0 13.17 3.24 4.64 3.25 4.64 9.09 0 3.22-2.52 6.5-2.52 3.29-7.7 5.04l9.93 19.34q1.24 2.41 3.87 3.29l1.38.29v1.46h-12.92l-10.87-22.78h-5.26v9.35q0 4.16.07 7.81 0 1.46.48 2.33.47.88 1.86 1.25l1.75.51Zm-4.16-24.89h3.94q5.19 0 7.59-2.63 2.41-2.63 2.41-8.03t-2.3-8q-2.3-2.59-7.41-2.59h-4.16q0 2.85-.03 5.81-.04 2.95-.04 6.64Zm49.7 24.89h-18.25v-1.53l1.46-.44q1.46-.51 1.94-1.35.47-.84.47-2.37V21.68q0-1.53-.47-2.37-.48-.84-1.94-1.35l-1.46-.44v-1.53h18.25v1.53l-1.46.44q-1.38.51-1.89 1.35-.52.84-.52 2.37v36.87q0 1.53.52 2.37.51.84 1.89 1.35l1.46.44Zm28.33 1.24q-7.08 0-12.78-2.92-5.69-2.92-9.01-8.61-3.32-5.7-3.32-13.87 0-6.14 2-10.88 2.01-4.75 5.55-7.99 3.54-3.25 8.14-4.9 4.6-1.64 9.78-1.64 4.02 0 7.52.91 3.51.92 6.72 2.67l.29 9.56h-1.97l-3.07-5.76q-.73-1.46-1.57-2.63t-2.15-1.68q-1.83-.88-4.31-.88-4.3 0-7.85 2.19-3.54 2.19-5.65 7.27-2.12 5.07-2.12 13.83 0 8.69 2.01 13.8t5.44 7.26 7.73 2.15q1.98 0 3.22-.29t2.48-.8q1.46-.59 2.26-1.72t1.39-2.59l2.77-6.64h1.97l-.29 10.51q-3.14 1.75-6.93 2.7-3.8.95-8.25.95m51.47-1.24h-22.55v-1.53l2.92-.59q3.06-.65 3.06-3.57V28.4q0-5.11-.07-10.22h-5.77q-2.33 0-3.43 1.24-1.09 1.24-2.19 3.5l-2.55 5.4h-2.05l.37-12.33h41.9l.36 12.33h-2.04l-2.56-5.4q-1.09-2.26-2.19-3.5-1.09-1.24-3.43-1.24h-5.84v40.37q0 2.99 3.07 3.57l2.99.59ZM807.27 78.07h16.348V26.013l-16.348-13.64Zm9.76-50.581h3.66v48.178h-3.66Zm-6.82-5.478h3.66v53.644h-3.66Zm-19.068 56.071h12.346V52.938l-12.346 8.65Zm6.917-19.202h3.66v16.787h-3.66Zm-5.148 4.514h3.66v12.285h-3.66Zm34.367 14.688h12.346V53.56l-12.346-7.625Zm6.917-22.118h3.66v19.703h-3.66Zm-5.148-3.868h3.66v23.57h-3.66Z"/><path fill="#007bff" d="M815.384.1c-30.32 0-54.9 24.58-54.9 54.9s24.58 54.9 54.9 54.9 54.9-24.58 54.9-54.9S845.704.1 815.384.1m34.733 87.986H780.65a1.83 1.83 0 0 1 0-3.66h69.466a1.83 1.83 0 0 1 0 3.66m0-6.344H780.65a1.83 1.83 0 1 1 0-3.66h6.832v-17.47c0-.61.28-1.159.78-1.5l15.348-10.749V8.47a1.83 1.83 0 0 1 3-1.403l20.009 16.678q.635.549.659 1.403v16.47l15.14 9.357c.55.33.879.915.879 1.55v25.546h6.82a1.83 1.83 0 0 1 0 3.66"/><rect width="316" height="29.38" x="460.704" y="-347.55" fill="none" rx="0" ry="0" transform="translate(473.24 415.89)"/><path fill="#007bff" d="m935.804 72.14 4.91 9.3 4.94-9.3h2.33l-6.19 11.36v7.2h-2.16v-7.1l-6.19-11.46Zm26.39 11.58q0 1.71-.44 3.06-.44 1.34-1.28 2.27t-2.03 1.42q-1.18.48-2.68.48-1.4 0-2.56-.48-1.16-.49-2.01-1.42-.84-.93-1.3-2.27-.47-1.35-.47-3.06 0-2.29.78-3.89.77-1.61 2.21-2.45 1.44-.85 3.44-.85 1.9 0 3.33.85t2.22 2.46q.79 1.6.79 3.88m-10.58 0q0 1.67.44 2.9.45 1.24 1.37 1.91.93.67 2.39.67 1.45 0 2.38-.67t1.38-1.91q.44-1.23.44-2.9t-.44-2.88q-.45-1.21-1.37-1.87-.93-.66-2.4-.66-2.17 0-3.18 1.43-1.01 1.44-1.01 3.98m23.6-6.93h2.12V90.7h-1.73l-.3-1.96h-.12q-.43.73-1.12 1.22-.68.5-1.54.75-.85.24-1.82.24-1.65 0-2.77-.53-1.11-.53-1.68-1.65-.56-1.12-.56-2.87v-9.11h2.13v8.96q0 1.74.79 2.59.78.86 2.39.86 1.55 0 2.47-.58.92-.59 1.33-1.72.41-1.14.41-2.79Zm12.91-.27q.41 0 .87.05.46.04.81.12l-.26 1.95q-.35-.09-.76-.14-.42-.05-.79-.05-.84 0-1.58.34-.74.33-1.3.96t-.88 1.51q-.32.89-.32 1.97v7.46h-2.12V76.78h1.76l.22 2.56h.09q.43-.77 1.04-1.42.61-.64 1.42-1.02t1.8-.38m26.1 4.72q0 3.14-1.14 5.24-1.15 2.1-3.31 3.16t-5.25 1.06h-5.04V72.14h5.6q2.83 0 4.87 1.03 2.05 1.04 3.16 3.06 1.11 2.03 1.11 5.01m-2.27.08q0-2.5-.83-4.13-.84-1.62-2.44-2.42-1.61-.79-3.93-.79h-3.11v14.87h2.63q3.83 0 5.75-1.9 1.93-1.89 1.93-5.63m6.08-4.53h2.11V90.7h-2.11Zm1.08-5.21q.52 0 .89.34.38.33.38 1.04 0 .7-.38 1.05-.37.34-.89.34-.55 0-.91-.34-.36-.35-.36-1.05 0-.71.36-1.04.36-.34.91-.34m14.48 15.31q0 1.33-.66 2.24-.67.91-1.91 1.37-1.24.45-2.95.45-1.46 0-2.53-.22-1.06-.23-1.86-.65v-1.94q.85.41 2.03.76 1.18.34 2.41.34 1.8 0 2.62-.58.81-.59.81-1.59 0-.57-.32-1.01-.33-.44-1.09-.85t-2.11-.91q-1.33-.51-2.3-1.01t-1.5-1.22q-.53-.73-.53-1.88 0-1.77 1.43-2.71 1.43-.95 3.75-.95 1.26 0 2.36.25t2.05.67l-.71 1.68q-.87-.36-1.84-.62-.98-.25-2-.25-1.46 0-2.24.48t-.78 1.32q0 .65.36 1.07.37.42 1.17.78.8.37 2.1.87 1.31.48 2.26.99.95.52 1.47 1.25.51.73.51 1.87m7.89 2.33q.52 0 1.06-.09.55-.09.89-.22v1.64q-.37.17-1.02.28t-1.28.11q-1.1 0-2-.38-.9-.39-1.44-1.32-.54-.92-.54-2.56v-8.25h-1.98V77.4l1.99-.83.84-3.02h1.27v3.23h4.07v1.65h-4.07v8.18q0 1.31.6 1.96t1.61.65m11.09-12.7q.42 0 .88.05.46.04.81.12l-.27 1.95q-.34-.09-.76-.14t-.78-.05q-.84 0-1.59.34-.74.33-1.3.96t-.87 1.51q-.32.89-.32 1.97v7.46h-2.12V76.78h1.75l.23 2.56h.09q.43-.77 1.04-1.42.61-.64 1.42-1.02.8-.38 1.79-.38m4.32.27h2.1V90.7h-2.1Zm1.08-5.21q.52 0 .89.34.37.33.37 1.04 0 .7-.37 1.05-.37.34-.89.34-.55 0-.91-.34-.36-.35-.36-1.05 0-.71.36-1.04.36-.34.91-.34m11.04 19.37q-1.88 0-3.31-.77-1.44-.78-2.24-2.36-.79-1.59-.79-4 0-2.53.84-4.13.84-1.61 2.33-2.38 1.48-.78 3.38-.78 1.04 0 2.01.21t1.59.53l-.63 1.76q-.64-.25-1.47-.45-.83-.21-1.55-.21-1.45 0-2.41.62-.96.63-1.44 1.83-.47 1.21-.47 2.97 0 1.69.46 2.89.47 1.19 1.39 1.82t2.3.63q1.1 0 1.99-.24.89-.23 1.62-.55v1.88q-.7.35-1.56.54t-2.04.19m11.38-1.73q.52 0 1.06-.09.55-.09.89-.22v1.64q-.37.17-1.02.28t-1.27.11q-1.11 0-2.01-.38-.9-.39-1.44-1.32-.54-.92-.54-2.56v-8.25h-1.98V77.4l1.99-.83.84-3.02h1.27v3.23h4.07v1.65h-4.07v8.18q0 1.31.6 1.96t1.61.65m4.92-1.55h2.26l.17.29q-.23.93-.58 1.98t-.76 2.11-.83 1.99h-1.58q.27-1.01.52-2.14.26-1.12.47-2.22t.33-2.01m24.12-1.91q0 1.65-.81 2.81-.82 1.17-2.3 1.77-1.47.61-3.46.61-1.06 0-1.99-.1-.94-.1-1.73-.29t-1.39-.47v-2.07q.96.39 2.33.73t2.87.34q1.39 0 2.36-.38.96-.37 1.46-1.08.51-.7.51-1.69 0-.95-.42-1.59-.42-.65-1.39-1.17-.97-.53-2.65-1.13-1.18-.41-2.08-.92-.9-.5-1.51-1.13-.61-.64-.92-1.47-.31-.84-.31-1.92 0-1.49.75-2.55.76-1.06 2.1-1.62 1.34-.57 3.07-.57 1.49 0 2.75.28 1.27.28 2.32.75l-.67 1.85q-1.01-.41-2.13-.69t-2.32-.28q-1.19 0-2.01.35t-1.25.98-.43 1.51q0 .98.41 1.63.41.64 1.32 1.14.91.51 2.41 1.05 1.64.6 2.78 1.27 1.14.66 1.74 1.62.59.96.59 2.43m3.47-8.97h2.11V90.7h-2.11Zm1.08-5.21q.52 0 .89.34.38.33.38 1.04 0 .7-.38 1.05-.37.34-.89.34-.55 0-.91-.34-.36-.35-.36-1.05 0-.71.36-1.04.36-.34.91-.34m20.6 4.94q2.3 0 3.47 1.2t1.17 3.85v9.12h-2.09v-9.01q0-1.69-.73-2.54-.73-.84-2.16-.84-2.02 0-2.93 1.17-.92 1.17-.92 3.44v7.78h-2.09v-9.01q0-1.13-.33-1.88-.32-.75-.96-1.13-.64-.37-1.62-.37-1.38 0-2.22.57t-1.21 1.7q-.38 1.12-.38 2.76v7.36h-2.11V76.78h1.71l.31 1.96h.12q.42-.72 1.05-1.22.64-.49 1.42-.74.79-.26 1.68-.26 1.59 0 2.66.59t1.55 1.8h.12q.68-1.21 1.88-1.8 1.19-.59 2.61-.59m15.49.01q2.6 0 4.15 1.79t1.55 5.38q0 2.38-.71 3.99t-2 2.44q-1.29.82-3.04.82-1.1 0-1.94-.29t-1.44-.79q-.59-.49-.99-1.07h-.15q.04.49.1 1.19.05.7.05 1.22v5.71h-2.12V76.79h1.74l.28 2.05h.1q.41-.63.99-1.16.59-.53 1.43-.84.85-.31 2-.31m-.37 1.78q-1.44 0-2.33.56-.88.56-1.28 1.67-.41 1.11-.44 2.78v.41q0 1.76.39 2.98t1.28 1.86q.9.63 2.41.63 1.29 0 2.16-.7.86-.69 1.29-1.95.42-1.25.42-2.87 0-2.46-.96-3.92-.96-1.45-2.94-1.45m11.86-7.37v19.75h-2.12V70.94Zm10.64 5.84v1.65h-3.47v12.26h-2.1V78.43h-2.47v-1.02l2.47-.7v-.92q0-1.76.52-2.85.52-1.1 1.51-1.62t2.41-.52q.8 0 1.47.14.66.14 1.17.31l-.54 1.67q-.44-.14-.98-.26t-1.09-.12q-1.21 0-1.79.78t-.58 2.44v1.02Zm2.55.01h2.11V90.7h-2.11Zm1.08-5.21q.52 0 .9.34.37.33.37 1.04 0 .7-.37 1.05-.38.34-.9.34-.54 0-.91-.34-.36-.35-.36-1.05 0-.71.36-1.04.37-.34.91-.34m10.84 4.95q1.78 0 3.05.79t1.94 2.2q.68 1.42.68 3.31v1.31h-9.62q.04 2.45 1.22 3.73t3.33 1.28q1.32 0 2.34-.24 1.01-.24 2.1-.71v1.85q-1.05.47-2.09.69-1.03.21-2.44.21-2.01 0-3.5-.82-1.49-.81-2.31-2.4-.83-1.59-.83-3.89 0-2.24.76-3.89.75-1.64 2.13-2.53t3.24-.89m-.02 1.73q-1.69 0-2.69 1.1-1.01 1.11-1.2 3.09h7.37q-.02-1.25-.39-2.19-.38-.95-1.14-1.47-.76-.53-1.95-.53m14.22 12.69q-2.64 0-4.19-1.8-1.54-1.8-1.54-5.36 0-3.59 1.57-5.42 1.58-1.84 4.19-1.84 1.11 0 1.93.29.83.3 1.43.78.59.49 1 1.12h.15q-.05-.4-.1-1.08-.05-.69-.05-1.12v-5.57h2.11V90.7h-1.7l-.32-1.98h-.09q-.39.62-1 1.13-.6.51-1.43.81-.83.29-1.96.29m.33-1.75q2.23 0 3.16-1.27.92-1.27.92-3.77v-.38q0-2.65-.88-4.07-.88-1.43-3.2-1.43-1.95 0-2.91 1.5-.97 1.49-.97 4.06t.96 3.97q.96 1.39 2.92 1.39m13.11-17.06-.58 13.41h-1.39l-.58-13.41Zm-2.81 17.24q0-.89.44-1.26.43-.38 1.08-.38.63 0 1.07.38.44.37.44 1.26 0 .88-.44 1.28t-1.07.4q-.65 0-1.08-.4-.44-.4-.44-1.28"/></g><path fill="transparent" stroke="transparent" d="M732 0h536v110H732z"/></g></svg>